<svg id="Layer_1" data-name="Layer 1" xmlns="http://www.w3.org/2000/svg" viewBox="0 0 1080 1920"><defs><style>.cls-1,.cls-4,.cls-6{fill:#fff;}.cls-2{font-size:47px;}.cls-2,.cls-4,.cls-5{font-family:FiraSans-SemiBold, Fira Sans;font-weight:700;}.cls-3{letter-spacing:-0.01em;}.cls-4{font-size:56px;}.cls-5{font-size:24px;}.cls-6,.cls-7{stroke:#000;stroke-miterlimit:10;stroke-width:10px;}</style></defs><title>installappscreen</title><rect x="50.5" y="50.5" width="979" height="1819" rx="52.75" ry="52.75"/><path d="M976.75,51A52.31,52.31,0,0,1,1029,103.25v1713.5A52.31,52.31,0,0,1,976.75,1869H103.25A52.31,52.31,0,0,1,51,1816.75V103.25A52.31,52.31,0,0,1,103.25,51h873.5m0-1H103.25A53.25,53.25,0,0,0,50,103.25v1713.5A53.25,53.25,0,0,0,103.25,1870h873.5a53.25,53.25,0,0,0,53.25-53.25V103.25A53.25,53.25,0,0,0,976.75,50Z"/><rect class="cls-1" x="60.5" y="147.5" width="959" height="1625"/><path d="M1019,148V1772H61V148h958m1-1H60V1773h960V147Z"/><rect class="cls-1" x="61.5" y="1434.5" width="957" height="337"/><path d="M1018,1435v336H62V1435h956m1-1H61v338h958V1434Z"/><path class="cls-1" d="M359,117.5a18.5,18.5,0,0,1,0-37H721a18.5,18.5,0,0,1,0,37Z"/><path d="M721,81a18,18,0,0,1,0,36H359a18,18,0,0,1,0-36H721m0-1H359a19,19,0,0,0,0,38H721a19,19,0,0,0,0-38Z"/><circle class="cls-1" cx="191" cy="99" r="19.5"/><path d="M191,80a19,19,0,1,1-19,19,19,19,0,0,1,19-19m0-1a20,20,0,1,0,20,20,20,20,0,0,0-20-20Z"/><circle class="cls-1" cx="133" cy="99" r="19.5"/><path d="M133,80a19,19,0,1,1-19,19,19,19,0,0,1,19-19m0-1a20,20,0,1,0,20,20,20,20,0,0,0-20-20Z"/><rect x="87.5" y="1464.5" width="95" height="95"/><path d="M182,1465v94H88v-94h94m1-1H87v96h96v-96Z"/><text class="cls-2" transform="translate(199 1524.58)">Install AppName <tspan class="cls-3" x="364.39" y="0">t</tspan><tspan x="381.78" y="0">o HomeSc</tspan><tspan class="cls-3" x="594.45" y="0">r</tspan><tspan x="612.64" y="0">een?</tspan></text><rect x="621" y="1621" width="358" height="116"/><text class="cls-4" transform="translate(712 1699.39)">Install</text><rect x="134" y="644" width="112" height="112"/><rect x="134" y="844" width="112" height="112"/><rect x="134" y="1044" width="112" height="112"/><rect x="364" y="644" width="112" height="112"/><rect x="364" y="844" width="112" height="112"/><rect x="364" y="1044" width="112" height="112"/><rect x="594" y="644" width="112" height="112"/><rect x="594" y="844" width="112" height="112"/><rect x="594" y="1044" width="112" height="112"/><rect x="824" y="644" width="112" height="112"/><rect x="824" y="844" width="112" height="112"/><rect x="824" y="1044" width="112" height="112"/><text class="cls-5" transform="translate(133 783.17)">AppName</text><text class="cls-5" transform="translate(133 987.17)">AppName</text><text class="cls-5" transform="translate(133 1189.17)">AppName</text><text class="cls-5" transform="translate(363 783.17)">AppName</text><text class="cls-5" transform="translate(363 987.17)">AppName</text><text class="cls-5" transform="translate(363 1189.17)">AppName</text><text class="cls-5" transform="translate(593 783.17)">AppName</text><text class="cls-5" transform="translate(593 987.17)">AppName</text><text class="cls-5" transform="translate(593 1189.17)">AppName</text><text class="cls-5" transform="translate(827 783.17)">AppName</text><text class="cls-5" transform="translate(827 987.17)">AppName</text><text class="cls-5" transform="translate(827 1189.17)">AppName</text><circle class="cls-6" cx="540" cy="380" r="131"/><polygon class="cls-7" points="531 295 531 457 511 457 511 361 469 361 531 295"/><polygon class="cls-7" points="538.78 295.22 538.78 457.22 557.7 457.22 557.7 361.22 597.45 361.22 538.78 295.22"/></svg>