<svg id="svg" version="1.1" width="400" height="400" viewBox="0 0 400 400" xmlns="http://www.w3.org/2000/svg" xmlns:xlink="http://www.w3.org/1999/xlink" ><g id="svgg"><path id="path0" d="M183.563 3.969 C 182.143 4.073,180.932 4.207,180.872 4.267 C 180.812 4.326,181.928 4.305,183.351 4.219 C 186.481 4.030,195.990 4.014,199.583 4.191 C 201.244 4.274,201.810 4.257,201.146 4.145 C 199.583 3.883,186.521 3.752,183.563 3.969 M184.896 4.297 C 167.060 5.446,149.644 11.278,134.531 21.165 C 133.070 22.121,131.875 22.855,131.875 22.797 C 131.875 22.604,137.432 19.061,140.192 17.494 C 141.681 16.648,142.868 15.923,142.828 15.884 C 142.704 15.760,137.306 18.923,134.479 20.776 C 130.273 23.533,121.875 30.025,121.875 30.519 C 121.875 30.568,123.164 29.533,124.740 28.219 C 126.315 26.905,128.026 25.534,128.542 25.173 C 129.918 24.210,129.348 24.728,126.894 26.672 C 125.701 27.616,124.021 29.004,123.159 29.755 C 122.298 30.507,121.662 31.010,121.746 30.873 C 122.112 30.281,121.502 30.749,119.578 32.536 C 118.446 33.587,117.577 34.539,117.646 34.652 C 117.716 34.764,117.677 34.797,117.559 34.724 C 117.442 34.652,116.349 35.660,115.131 36.964 C 113.043 39.201,112.571 39.804,113.177 39.460 C 113.320 39.379,113.114 39.655,112.720 40.073 C 112.325 40.491,111.956 40.833,111.899 40.833 C 111.843 40.833,112.066 40.552,112.396 40.208 C 112.725 39.865,112.907 39.588,112.799 39.593 C 112.692 39.599,112.276 40.007,111.875 40.499 C 111.474 40.992,110.466 42.201,109.635 43.185 C 108.150 44.946,107.771 45.537,108.490 44.973 C 108.821 44.713,108.828 44.721,108.564 45.057 C 108.405 45.260,108.226 45.378,108.167 45.319 C 108.027 45.180,107.500 45.617,107.500 45.871 C 107.500 45.978,107.617 45.996,107.760 45.910 C 107.937 45.803,107.929 45.866,107.735 46.106 C 107.402 46.516,107.196 46.577,107.424 46.198 C 107.530 46.021,107.467 46.029,107.227 46.223 C 106.821 46.553,106.746 46.977,107.135 46.743 C 107.312 46.637,107.304 46.700,107.110 46.939 C 106.777 47.350,106.571 47.411,106.799 47.031 C 106.905 46.854,106.842 46.862,106.602 47.057 C 106.196 47.386,106.121 47.810,106.510 47.576 C 106.687 47.470,106.679 47.533,106.485 47.773 C 106.152 48.183,105.946 48.244,106.174 47.865 C 106.280 47.688,106.217 47.696,105.977 47.890 C 105.583 48.210,105.490 48.650,105.866 48.418 C 106.016 48.325,106.049 48.361,105.955 48.513 C 105.872 48.647,105.721 48.705,105.620 48.643 C 105.379 48.494,104.717 49.503,104.881 49.768 C 104.950 49.880,104.897 50.039,104.763 50.122 C 104.596 50.225,104.575 50.180,104.695 49.980 C 104.845 49.731,104.819 49.730,104.519 49.973 C 104.112 50.303,104.039 50.723,104.427 50.500 C 104.578 50.413,104.615 50.429,104.514 50.540 C 104.418 50.644,104.239 50.729,104.115 50.729 C 103.990 50.729,103.845 50.859,103.792 51.019 C 103.728 51.212,103.785 51.253,103.963 51.143 C 104.140 51.033,104.180 51.060,104.080 51.221 C 103.997 51.355,103.849 51.415,103.750 51.354 C 103.651 51.293,103.423 51.453,103.243 51.710 C 102.850 52.271,102.820 52.580,103.177 52.375 C 103.328 52.288,103.365 52.304,103.264 52.415 C 103.168 52.519,102.989 52.604,102.865 52.604 C 102.740 52.604,102.595 52.734,102.542 52.894 C 102.476 53.092,102.537 53.130,102.733 53.016 C 102.903 52.918,102.950 52.928,102.847 53.040 C 102.752 53.144,102.572 53.229,102.448 53.229 C 102.324 53.229,102.179 53.359,102.126 53.519 C 102.060 53.717,102.120 53.755,102.317 53.641 C 102.486 53.543,102.533 53.553,102.431 53.665 C 102.335 53.769,102.155 53.854,102.031 53.854 C 101.907 53.854,101.762 53.984,101.709 54.144 C 101.645 54.337,101.702 54.378,101.880 54.268 C 102.057 54.158,102.097 54.185,101.997 54.346 C 101.914 54.480,101.764 54.539,101.663 54.477 C 101.562 54.414,101.381 54.547,101.260 54.772 C 100.971 55.313,100.984 55.474,101.302 55.291 C 101.453 55.204,101.490 55.221,101.389 55.331 C 101.293 55.435,101.114 55.521,100.990 55.521 C 100.865 55.521,100.720 55.651,100.667 55.810 C 100.603 56.003,100.660 56.045,100.838 55.934 C 101.015 55.825,101.055 55.852,100.955 56.013 C 100.872 56.147,100.721 56.205,100.619 56.142 C 100.381 55.995,99.525 57.653,99.695 57.929 C 99.765 58.042,99.710 58.110,99.573 58.078 C 99.435 58.047,99.276 58.151,99.218 58.310 C 99.147 58.504,99.201 58.545,99.380 58.434 C 99.557 58.325,99.597 58.352,99.497 58.513 C 99.414 58.647,99.268 58.708,99.172 58.649 C 98.922 58.495,97.658 60.818,97.796 61.178 C 97.860 61.344,97.825 61.426,97.719 61.361 C 97.477 61.211,95.861 64.313,93.958 68.583 C 92.440 71.986,92.365 72.191,92.708 71.979 C 92.823 71.908,92.917 71.895,92.917 71.950 C 92.917 72.159,92.093 73.958,91.997 73.958 C 91.942 73.958,92.038 73.620,92.210 73.207 C 92.383 72.793,92.486 72.416,92.439 72.369 C 92.391 72.322,91.953 73.321,91.465 74.590 C 90.977 75.859,90.635 76.954,90.705 77.025 C 90.776 77.095,90.833 77.028,90.833 76.875 C 90.833 76.722,90.881 76.644,90.938 76.702 C 90.996 76.760,90.901 77.174,90.727 77.622 C 90.522 78.150,90.450 78.236,90.522 77.865 C 90.583 77.549,90.592 77.292,90.542 77.292 C 90.403 77.292,89.527 80.014,89.633 80.119 C 89.683 80.170,89.840 79.826,89.981 79.356 C 90.122 78.886,90.277 78.541,90.326 78.590 C 90.375 78.639,90.243 79.186,90.033 79.805 C 89.822 80.424,89.606 80.798,89.552 80.636 C 89.498 80.474,89.116 81.507,88.703 82.931 C 87.921 85.630,87.545 87.334,87.903 86.563 C 88.224 85.869,88.138 86.461,87.615 88.542 C 87.341 89.630,87.109 90.364,87.100 90.173 C 87.091 89.982,87.231 89.247,87.413 88.540 C 87.594 87.834,87.696 87.210,87.641 87.155 C 87.551 87.065,87.411 87.583,86.875 90.000 C 86.379 92.233,85.837 95.159,85.852 95.521 C 85.861 95.750,86.092 94.906,86.365 93.646 C 86.961 90.887,86.852 91.965,86.144 95.833 C 85.822 97.588,85.673 98.137,85.747 97.293 C 85.812 96.549,85.820 95.986,85.763 96.043 C 85.487 96.321,84.618 103.679,84.497 106.771 L 84.399 109.271 84.591 106.979 C 84.841 103.989,85.432 98.878,85.540 98.767 C 85.680 98.624,85.640 99.167,85.320 101.744 C 84.048 111.996,84.527 125.326,86.561 136.330 C 86.855 137.921,87.055 139.264,87.006 139.314 C 86.956 139.364,86.696 138.205,86.428 136.739 C 86.160 135.274,85.912 134.227,85.876 134.413 C 85.820 134.703,86.327 137.540,86.874 140.000 C 87.412 142.414,87.550 142.936,87.632 142.855 C 87.682 142.805,87.622 142.317,87.500 141.771 C 87.378 141.225,87.316 140.739,87.364 140.692 C 87.411 140.644,87.603 141.281,87.789 142.106 C 87.976 142.932,88.081 143.655,88.023 143.714 C 87.964 143.772,87.917 143.648,87.917 143.438 C 87.917 143.227,87.864 143.108,87.801 143.172 C 87.572 143.400,89.933 151.711,90.451 152.500 C 90.611 152.743,90.627 152.719,90.524 152.396 C 90.440 152.130,90.463 152.054,90.589 152.188 C 90.698 152.302,90.850 152.630,90.928 152.917 C 91.036 153.315,91.017 153.364,90.850 153.125 C 90.730 152.953,90.630 152.906,90.628 153.020 C 90.623 153.347,92.343 157.727,92.439 157.631 C 92.486 157.584,92.373 157.183,92.189 156.741 C 92.004 156.299,91.945 156.031,92.057 156.146 C 92.168 156.260,92.451 156.870,92.685 157.500 C 93.015 158.389,93.036 158.553,92.777 158.229 C 92.484 157.863,92.460 157.859,92.576 158.194 C 92.649 158.404,92.708 158.615,92.708 158.663 C 92.708 158.711,92.849 158.750,93.021 158.750 C 93.193 158.750,93.333 158.849,93.333 158.971 C 93.333 159.092,93.240 159.133,93.125 159.062 C 92.837 158.885,92.840 158.895,93.536 160.527 C 93.877 161.326,94.249 161.957,94.362 161.930 C 94.475 161.902,94.518 162.011,94.457 162.170 C 94.396 162.330,94.968 163.710,95.728 165.237 C 97.015 167.821,97.545 168.749,97.223 167.854 C 97.143 167.630,97.171 167.530,97.294 167.606 C 97.407 167.676,97.500 167.920,97.500 168.150 C 97.500 168.379,97.593 168.509,97.706 168.439 C 97.819 168.369,97.862 168.442,97.801 168.602 C 97.662 168.962,98.439 170.952,98.697 170.898 C 98.800 170.876,98.878 171.062,98.869 171.311 C 98.861 171.568,98.982 171.765,99.149 171.767 C 99.312 171.769,99.483 171.911,99.530 172.083 C 99.606 172.361,99.589 172.361,99.380 172.083 C 99.182 171.821,99.156 171.837,99.220 172.188 C 99.262 172.417,99.404 172.582,99.536 172.555 C 99.668 172.527,99.726 172.637,99.664 172.799 C 99.530 173.147,99.950 174.014,100.182 173.870 C 100.271 173.816,100.336 173.977,100.328 174.229 C 100.319 174.481,100.413 174.670,100.536 174.648 C 100.659 174.626,100.753 174.813,100.744 175.064 C 100.735 175.338,100.839 175.498,101.005 175.464 C 101.169 175.430,101.220 175.505,101.130 175.650 C 100.969 175.912,103.740 181.697,103.962 181.560 C 104.034 181.516,104.086 181.685,104.078 181.937 C 104.069 182.191,104.175 182.374,104.315 182.346 C 104.455 182.319,104.522 182.419,104.464 182.568 C 104.312 182.964,105.620 185.653,105.885 185.489 C 106.023 185.404,106.044 185.453,105.942 185.618 C 105.750 185.929,107.064 188.786,107.325 188.625 C 107.419 188.567,107.448 188.644,107.390 188.795 C 107.262 189.129,109.306 193.664,109.557 193.603 C 109.654 193.580,109.842 193.814,109.974 194.124 C 110.206 194.666,110.202 194.672,109.871 194.271 C 109.436 193.744,109.387 193.619,111.762 199.063 C 112.861 201.583,113.849 203.624,113.956 203.596 C 114.064 203.569,114.106 203.667,114.049 203.813 C 113.993 203.960,114.663 205.810,115.538 207.925 C 117.058 211.601,118.445 215.083,120.093 219.366 C 120.510 220.450,120.909 221.388,120.979 221.450 C 121.050 221.512,121.041 221.375,120.958 221.146 C 120.863 220.881,120.880 220.805,121.006 220.938 C 121.114 221.052,121.267 221.380,121.344 221.667 C 121.452 222.065,121.434 222.114,121.267 221.875 C 120.914 221.371,121.002 221.745,121.680 223.618 C 122.031 224.588,122.453 225.434,122.618 225.497 C 122.782 225.560,122.915 225.732,122.913 225.879 C 122.911 226.068,122.846 226.055,122.687 225.833 C 122.504 225.577,122.483 225.596,122.570 225.938 C 122.940 227.393,124.263 230.806,124.382 230.614 C 124.479 230.457,124.565 230.485,124.647 230.698 C 124.714 230.872,124.680 231.044,124.572 231.080 C 124.465 231.116,124.767 232.345,125.243 233.812 C 125.720 235.278,126.175 236.371,126.255 236.242 C 126.352 236.084,126.444 236.121,126.534 236.354 C 126.744 236.902,126.687 237.225,126.441 236.875 C 126.263 236.620,126.242 236.639,126.325 236.979 C 126.749 238.710,127.578 241.044,127.699 240.848 C 127.780 240.717,128.039 241.268,128.274 242.072 C 128.508 242.877,128.627 243.490,128.538 243.435 C 128.448 243.380,128.257 242.842,128.112 242.240 C 127.967 241.638,127.813 241.252,127.769 241.382 C 127.685 241.634,128.878 245.829,129.092 246.028 C 129.161 246.093,129.154 245.935,129.074 245.677 C 128.858 244.972,129.093 245.113,129.346 245.840 C 129.477 246.215,129.485 246.422,129.367 246.349 C 129.115 246.194,129.132 246.843,129.393 247.396 C 129.551 247.730,129.568 247.689,129.480 247.188 C 129.403 246.756,129.428 246.659,129.561 246.875 C 129.819 247.297,131.035 251.955,130.830 251.736 C 130.741 251.640,130.464 250.767,130.216 249.795 C 129.967 248.823,129.709 247.979,129.643 247.920 C 129.576 247.861,129.581 248.047,129.654 248.333 C 129.726 248.620,130.039 249.875,130.348 251.123 C 130.711 252.582,130.959 253.255,131.046 253.009 C 131.163 252.674,131.197 252.690,131.316 253.136 C 131.522 253.906,131.469 254.356,131.232 253.854 C 131.059 253.487,131.046 253.499,131.127 253.958 C 131.421 255.628,132.383 259.770,132.458 259.694 C 132.508 259.645,132.295 258.467,131.986 257.076 C 131.677 255.686,131.463 254.509,131.511 254.462 C 131.652 254.320,132.956 260.407,132.844 260.684 C 132.787 260.823,132.726 260.703,132.708 260.417 C 132.690 260.130,132.631 260.003,132.577 260.135 C 132.524 260.266,132.713 261.626,132.999 263.156 C 133.285 264.686,133.629 266.688,133.763 267.604 C 134.183 270.482,134.365 271.152,134.271 269.479 L 134.190 268.021 134.481 269.896 C 134.847 272.243,135.417 279.116,135.417 281.172 C 135.417 282.021,135.644 284.988,135.921 287.764 C 136.528 293.847,136.704 296.228,136.471 295.208 L 136.305 294.479 136.277 295.105 C 136.233 296.124,137.592 300.541,138.665 302.865 C 139.046 303.689,139.240 303.762,138.940 302.969 C 138.778 302.539,138.783 302.455,138.962 302.632 C 139.094 302.761,139.218 303.136,139.239 303.465 C 139.286 304.204,140.157 305.890,140.410 305.733 C 140.513 305.670,140.664 305.728,140.747 305.862 C 140.847 306.023,140.807 306.050,140.630 305.941 C 140.452 305.830,140.395 305.872,140.459 306.065 C 140.512 306.224,140.657 306.354,140.781 306.354 C 140.905 306.354,141.085 306.440,141.181 306.544 C 141.281 306.654,141.245 306.671,141.094 306.584 C 140.706 306.360,140.779 306.780,141.186 307.110 C 141.490 307.357,141.513 307.353,141.354 307.083 C 141.195 306.814,141.218 306.810,141.523 307.057 C 141.904 307.366,142.006 307.605,141.667 307.396 C 141.239 307.132,141.485 307.560,142.344 308.580 C 143.160 309.547,145.304 311.387,146.042 311.751 C 146.214 311.836,146.073 311.693,145.729 311.432 C 145.385 311.172,144.354 310.213,143.438 309.301 L 141.771 307.643 143.710 309.448 C 145.815 311.407,148.158 312.732,150.833 313.477 C 152.978 314.074,229.957 314.061,232.188 313.463 C 233.939 312.994,235.862 312.151,237.227 311.254 C 237.969 310.766,238.069 310.732,237.612 311.122 C 236.759 311.850,235.174 312.687,233.553 313.266 C 232.799 313.535,232.514 313.695,232.917 313.623 C 234.530 313.333,239.360 310.556,239.372 309.912 C 239.373 309.806,239.117 309.944,238.802 310.219 C 238.487 310.494,238.883 310.041,239.682 309.213 C 240.481 308.386,241.181 307.708,241.237 307.708 C 241.293 307.708,240.877 308.177,240.312 308.750 C 239.748 309.323,239.382 309.792,239.499 309.792 C 239.616 309.792,240.152 309.282,240.689 308.660 C 241.627 307.574,241.902 307.122,241.458 307.396 C 241.119 307.605,241.221 307.366,241.602 307.057 C 241.907 306.810,241.930 306.814,241.771 307.083 C 241.612 307.353,241.635 307.357,241.939 307.110 C 242.346 306.780,242.419 306.360,242.031 306.584 C 241.880 306.671,241.844 306.654,241.944 306.544 C 242.040 306.440,242.220 306.354,242.344 306.354 C 242.468 306.354,242.613 306.224,242.666 306.065 C 242.730 305.872,242.673 305.830,242.495 305.941 C 242.318 306.050,242.278 306.023,242.378 305.862 C 242.461 305.728,242.613 305.670,242.715 305.733 C 242.818 305.797,243.161 305.353,243.478 304.747 C 244.861 302.104,246.174 298.707,245.394 299.792 C 245.207 300.052,245.190 300.040,245.293 299.723 C 245.361 299.513,245.418 299.231,245.420 299.098 C 245.422 298.945,245.491 298.961,245.605 299.142 C 245.826 299.490,246.333 297.871,246.642 295.833 C 246.895 294.168,247.125 290.287,246.889 291.667 C 246.589 293.427,246.665 291.593,247.071 287.297 C 247.293 284.945,247.583 281.005,247.714 278.542 C 247.846 276.078,248.005 274.016,248.068 273.958 C 248.131 273.901,248.117 274.885,248.039 276.146 C 247.770 280.446,247.524 285.927,247.597 286.000 C 247.687 286.090,247.823 284.246,248.126 278.854 C 248.254 276.563,248.395 274.125,248.438 273.438 C 248.505 272.385,248.491 272.319,248.351 273.021 L 248.184 273.854 248.173 273.125 C 248.167 272.724,248.235 271.927,248.324 271.354 L 248.486 270.313 248.542 271.250 L 248.597 272.188 248.760 271.146 C 248.982 269.716,248.975 268.515,248.750 269.583 C 248.666 269.984,248.583 270.125,248.566 269.896 C 248.523 269.321,249.426 263.732,249.543 263.848 C 249.595 263.900,249.474 264.936,249.275 266.150 C 249.076 267.364,248.955 268.399,249.006 268.450 C 249.057 268.501,249.259 267.535,249.456 266.303 C 249.653 265.071,249.960 263.330,250.137 262.435 C 250.315 261.539,250.413 260.760,250.355 260.702 C 250.298 260.645,250.138 261.266,250.000 262.083 C 249.862 262.900,249.706 263.525,249.652 263.472 C 249.599 263.418,249.719 262.498,249.919 261.427 C 250.200 259.917,250.316 259.596,250.433 260.000 C 250.516 260.286,250.593 260.368,250.604 260.182 C 250.616 259.996,250.671 259.527,250.726 259.141 C 250.813 258.540,250.801 258.513,250.643 258.958 C 250.186 260.247,250.472 258.477,251.149 255.833 C 251.545 254.286,251.823 253.326,251.768 253.698 C 251.712 254.070,251.620 254.680,251.563 255.052 C 251.506 255.424,251.645 255.073,251.871 254.271 C 252.295 252.767,252.414 251.835,252.083 252.604 C 251.985 252.833,251.898 252.932,251.890 252.824 C 251.863 252.465,253.572 246.159,253.783 245.837 C 253.956 245.573,253.971 245.580,253.877 245.884 C 253.399 247.421,252.280 251.933,252.357 252.010 C 252.410 252.063,252.570 251.609,252.713 251.001 C 252.857 250.393,253.570 247.794,254.298 245.225 C 255.027 242.656,255.577 240.507,255.520 240.450 C 255.463 240.394,255.417 240.498,255.417 240.682 C 255.417 240.866,255.329 241.071,255.222 241.138 C 255.101 241.212,255.101 241.000,255.222 240.578 C 255.329 240.204,255.418 239.851,255.420 239.793 C 255.422 239.735,255.505 239.817,255.605 239.975 C 255.734 240.178,255.890 239.900,256.133 239.038 C 256.323 238.364,256.614 237.459,256.781 237.027 C 257.130 236.120,257.183 235.565,256.875 236.042 C 256.645 236.397,256.596 236.052,256.800 235.520 C 256.886 235.295,256.983 235.254,257.075 235.403 C 257.153 235.529,257.577 234.529,258.017 233.181 C 259.081 229.920,259.050 230.031,258.773 230.417 C 258.573 230.694,258.548 230.694,258.548 230.417 C 258.548 229.967,258.949 229.356,258.958 229.792 C 258.967 230.228,259.369 229.616,259.369 229.167 C 259.369 228.889,259.344 228.889,259.150 229.167 C 258.983 229.406,258.964 229.357,259.072 228.958 C 259.150 228.672,259.302 228.344,259.411 228.229 C 259.537 228.096,259.564 228.171,259.486 228.438 C 259.419 228.667,259.555 228.444,259.789 227.942 C 260.291 226.865,260.579 225.757,260.228 226.250 C 260.089 226.446,260.005 226.469,260.003 226.312 C 260.001 226.175,260.130 225.987,260.290 225.896 C 260.699 225.661,262.346 221.204,262.084 221.042 C 261.953 220.961,261.992 220.761,262.188 220.509 C 262.496 220.110,262.499 220.111,262.363 220.521 C 262.287 220.750,262.286 220.884,262.360 220.819 C 262.585 220.621,264.177 216.191,264.064 216.078 C 264.006 216.020,263.958 216.097,263.958 216.250 C 263.958 216.403,263.909 216.479,263.849 216.419 C 263.687 216.257,263.976 215.611,264.159 215.725 C 264.338 215.835,264.272 215.984,266.958 209.375 C 268.053 206.682,268.862 204.450,268.757 204.414 C 268.651 204.378,268.620 204.206,268.687 204.032 C 268.768 203.818,268.855 203.791,268.951 203.947 C 269.030 204.075,269.494 203.243,269.983 202.100 C 270.473 200.951,270.801 199.908,270.716 199.770 C 270.624 199.621,270.648 199.573,270.775 199.652 C 270.898 199.727,271.235 199.226,271.558 198.486 C 272.389 196.588,272.391 196.580,272.121 196.747 C 271.964 196.845,271.923 196.785,272.003 196.575 C 272.071 196.397,272.198 196.296,272.285 196.350 C 272.530 196.502,274.236 192.572,274.053 192.276 C 273.954 192.116,273.980 192.072,274.123 192.160 C 274.260 192.245,274.522 191.916,274.780 191.333 C 275.267 190.230,275.288 190.134,275.002 190.311 C 274.885 190.383,274.849 190.302,274.918 190.122 C 274.985 189.947,275.120 189.825,275.219 189.850 C 275.467 189.914,278.991 182.469,278.866 182.144 C 278.810 181.999,278.873 181.902,279.006 181.930 C 279.138 181.957,279.284 181.804,279.331 181.590 C 279.389 181.320,279.335 181.250,279.155 181.362 C 278.985 181.467,278.946 181.438,279.045 181.279 C 279.128 181.145,279.262 181.076,279.344 181.127 C 279.578 181.272,285.673 168.996,285.503 168.721 C 285.411 168.572,285.442 168.533,285.585 168.621 C 285.871 168.798,286.743 167.167,286.585 166.753 C 286.523 166.594,286.587 166.486,286.726 166.513 C 286.866 166.540,286.972 166.358,286.964 166.106 C 286.956 165.855,287.028 165.667,287.124 165.689 C 287.274 165.723,288.958 162.306,288.958 161.968 C 288.958 161.904,288.866 161.908,288.752 161.978 C 288.635 162.050,288.599 161.968,288.668 161.788 C 288.735 161.614,288.878 161.492,288.985 161.517 C 289.093 161.542,289.552 160.672,290.006 159.583 C 290.821 157.627,291.033 156.893,290.608 157.500 C 290.333 157.893,290.572 156.939,290.868 156.458 C 291.005 156.238,291.021 156.291,290.925 156.641 C 290.833 156.976,290.863 157.090,291.019 156.993 C 291.146 156.915,291.250 156.723,291.250 156.567 C 291.250 156.412,291.423 155.878,291.634 155.382 C 292.131 154.212,292.398 153.100,292.076 153.542 C 291.898 153.786,291.880 153.740,291.996 153.333 C 292.284 152.323,292.920 150.736,292.811 151.302 C 292.658 152.094,292.853 152.023,293.097 151.198 C 293.207 150.826,293.543 149.724,293.843 148.750 C 294.709 145.938,295.653 142.271,295.572 142.029 C 295.531 141.907,295.378 142.345,295.231 143.003 C 295.083 143.661,294.924 144.160,294.876 144.112 C 294.828 144.064,294.945 143.332,295.136 142.487 C 295.364 141.474,295.528 141.079,295.616 141.329 C 295.811 141.884,297.588 133.316,297.459 132.446 C 297.421 132.189,297.264 132.805,297.109 133.814 C 296.955 134.822,296.784 135.604,296.731 135.550 C 296.648 135.467,296.817 134.222,297.584 129.271 C 297.637 128.927,297.637 129.343,297.585 130.196 C 297.533 131.049,297.531 131.705,297.582 131.654 C 297.808 131.428,298.325 126.265,298.415 123.333 L 298.513 120.104 298.314 123.229 C 298.204 124.948,298.028 126.870,297.923 127.500 C 297.733 128.640,297.733 128.639,297.830 127.188 C 298.803 112.571,298.342 103.054,296.131 92.136 C 295.842 90.705,295.656 89.483,295.719 89.420 C 295.782 89.357,295.833 89.524,295.833 89.792 C 295.833 90.059,295.891 90.220,295.963 90.149 C 296.034 90.078,296.022 89.663,295.938 89.228 C 295.813 88.586,295.755 88.515,295.633 88.848 C 295.523 89.148,295.389 88.844,295.136 87.722 C 294.945 86.876,294.828 86.145,294.876 86.097 C 294.924 86.049,295.083 86.548,295.231 87.205 C 295.378 87.863,295.533 88.297,295.576 88.169 C 295.660 87.917,294.418 83.091,294.225 82.918 C 294.161 82.860,294.164 83.094,294.233 83.438 L 294.358 84.063 294.074 83.438 C 293.885 83.021,293.862 82.768,294.006 82.679 C 294.143 82.595,293.895 81.552,293.324 79.810 C 292.830 78.305,292.362 77.178,292.284 77.304 C 292.189 77.459,292.101 77.430,292.020 77.218 C 291.953 77.044,291.994 76.870,292.110 76.831 C 292.346 76.753,291.630 74.696,290.112 71.094 C 289.569 69.806,289.050 68.797,288.959 68.854 C 288.868 68.910,288.738 68.811,288.670 68.634 C 288.599 68.449,288.634 68.366,288.752 68.439 C 289.052 68.624,289.011 68.453,288.505 67.412 C 288.256 66.899,287.976 66.526,287.883 66.584 C 287.789 66.641,287.765 66.553,287.828 66.388 C 287.975 66.005,285.886 61.818,285.628 61.977 C 285.521 62.043,285.287 61.813,285.108 61.465 C 284.700 60.677,284.873 60.623,285.298 61.406 C 285.468 61.721,285.612 61.879,285.617 61.756 C 285.632 61.356,284.347 59.159,284.164 59.272 C 284.067 59.333,283.919 59.272,283.836 59.138 C 283.742 58.986,283.776 58.950,283.926 59.043 C 284.250 59.242,284.229 59.058,283.845 58.316 C 283.669 57.974,283.441 57.746,283.339 57.809 C 283.237 57.872,283.086 57.814,283.003 57.680 C 282.909 57.527,282.943 57.491,283.093 57.584 C 283.392 57.769,283.399 57.595,283.115 57.064 C 282.994 56.839,282.813 56.706,282.712 56.768 C 282.611 56.831,282.461 56.772,282.378 56.638 C 282.278 56.477,282.318 56.450,282.495 56.559 C 282.674 56.670,282.728 56.629,282.657 56.435 C 282.599 56.276,282.440 56.172,282.302 56.203 C 282.165 56.235,282.110 56.167,282.181 56.053 C 282.351 55.778,281.701 54.537,281.464 54.684 C 281.362 54.747,281.211 54.689,281.128 54.555 C 281.028 54.393,281.068 54.367,281.245 54.476 C 281.423 54.586,281.480 54.545,281.416 54.352 C 281.363 54.193,281.218 54.063,281.094 54.063 C 280.970 54.063,280.790 53.977,280.694 53.873 C 280.594 53.763,280.630 53.746,280.781 53.833 C 281.139 54.039,281.108 53.729,280.715 53.168 C 280.535 52.911,280.286 52.764,280.162 52.841 C 280.029 52.923,279.995 52.884,280.080 52.748 C 280.250 52.473,279.194 50.792,278.947 50.944 C 278.855 51.002,278.711 50.939,278.628 50.805 C 278.528 50.643,278.568 50.617,278.745 50.726 C 278.923 50.836,278.980 50.795,278.916 50.602 C 278.863 50.443,278.718 50.313,278.594 50.313 C 278.470 50.313,278.290 50.227,278.194 50.123 C 278.092 50.011,278.139 50.001,278.308 50.100 C 278.505 50.214,278.565 50.175,278.499 49.977 C 278.446 49.818,278.301 49.688,278.177 49.688 C 278.053 49.688,277.873 49.602,277.778 49.498 C 277.677 49.388,277.713 49.371,277.865 49.458 C 278.253 49.681,278.179 49.262,277.773 48.932 C 277.533 48.737,277.470 48.729,277.576 48.906 C 277.804 49.286,277.598 49.225,277.265 48.814 C 277.071 48.575,277.063 48.512,277.240 48.618 C 277.629 48.852,277.554 48.428,277.148 48.098 C 276.908 47.904,276.845 47.896,276.951 48.073 C 277.179 48.452,276.973 48.391,276.640 47.981 C 276.397 47.682,276.398 47.655,276.642 47.802 C 276.841 47.922,276.897 47.886,276.824 47.685 C 276.766 47.526,276.622 47.416,276.504 47.441 C 276.386 47.466,276.164 47.326,276.010 47.129 C 275.757 46.806,275.765 46.799,276.094 47.057 C 276.621 47.470,276.543 47.014,276.006 46.543 C 275.757 46.324,275.622 46.263,275.706 46.406 C 275.927 46.785,275.724 46.725,275.390 46.314 C 275.196 46.075,275.188 46.012,275.365 46.118 C 275.754 46.352,275.679 45.928,275.273 45.598 C 275.033 45.404,274.970 45.396,275.076 45.573 C 275.304 45.952,275.098 45.891,274.765 45.481 C 274.571 45.241,274.563 45.178,274.740 45.285 C 275.246 45.589,274.977 45.093,274.134 44.167 C 273.306 43.257,273.400 43.551,274.261 44.565 C 274.496 44.841,274.577 45.004,274.442 44.927 C 274.307 44.849,273.886 44.392,273.505 43.911 C 273.124 43.430,272.930 43.109,273.073 43.197 C 273.554 43.494,273.339 42.995,272.767 42.484 C 272.341 42.105,272.275 42.083,272.500 42.396 C 272.725 42.709,272.659 42.686,272.233 42.307 C 271.644 41.782,271.431 41.420,271.979 41.875 C 272.644 42.427,272.250 41.710,271.515 41.030 C 271.088 40.636,270.915 40.523,271.130 40.781 C 271.727 41.494,271.411 41.341,270.716 40.581 C 270.380 40.213,270.268 40.037,270.469 40.190 C 270.669 40.343,270.833 40.376,270.833 40.264 C 270.833 40.008,263.152 32.083,262.905 32.083 C 262.805 32.083,263.916 33.268,265.372 34.717 L 268.021 37.350 265.265 34.727 C 263.750 33.285,261.523 31.245,260.317 30.193 C 259.112 29.142,258.125 28.235,258.125 28.178 C 258.125 28.056,260.550 30.123,261.823 31.330 C 262.310 31.792,262.708 32.106,262.708 32.027 C 262.708 31.197,249.497 21.047,246.250 19.383 C 245.297 18.894,246.119 19.497,248.646 21.140 C 251.183 22.789,255.833 26.161,255.833 26.352 C 255.833 26.409,254.779 25.672,253.490 24.713 C 240.793 15.273,225.165 8.442,210.260 5.818 C 209.659 5.712,208.628 5.530,207.969 5.415 C 202.784 4.503,190.746 3.920,184.896 4.297 M177.813 4.583 L 176.979 4.733 177.708 4.744 C 178.109 4.750,178.906 4.682,179.479 4.593 L 180.521 4.431 179.583 4.432 C 179.068 4.433,178.271 4.501,177.813 4.583 M203.854 4.607 C 204.542 4.707,205.807 4.888,206.667 5.010 C 207.526 5.132,208.557 5.286,208.958 5.352 C 209.359 5.418,209.634 5.414,209.569 5.343 C 209.411 5.171,204.025 4.371,203.229 4.402 C 202.885 4.415,203.167 4.507,203.854 4.607 M174.597 5.028 C 173.974 5.131,173.412 5.270,173.347 5.336 C 173.227 5.458,174.632 5.288,176.146 4.997 C 177.385 4.760,176.056 4.786,174.597 5.028 M171.458 5.635 C 171.107 5.755,171.277 5.773,171.979 5.692 C 172.552 5.626,173.060 5.537,173.108 5.494 C 173.272 5.348,171.979 5.458,171.458 5.635 M209.809 5.494 C 209.857 5.537,210.365 5.626,210.938 5.692 C 211.640 5.773,211.810 5.755,211.458 5.635 C 210.938 5.458,209.645 5.348,209.809 5.494 M166.771 6.673 C 165.052 7.117,163.560 7.484,163.455 7.490 C 163.350 7.495,163.312 7.548,163.371 7.607 C 163.430 7.666,164.781 7.393,166.374 7.000 C 167.967 6.608,169.646 6.195,170.104 6.082 C 170.669 5.942,170.770 5.875,170.417 5.872 C 170.130 5.869,168.490 6.230,166.771 6.673 M212.500 6.042 C 212.786 6.133,213.255 6.208,213.542 6.208 L 214.063 6.208 213.542 6.042 C 213.255 5.950,212.786 5.875,212.500 5.875 L 211.979 5.875 212.500 6.042 M214.184 6.330 C 214.371 6.502,219.441 7.712,219.543 7.609 C 219.604 7.549,219.593 7.500,219.519 7.500 C 219.446 7.500,218.287 7.219,216.945 6.875 C 214.607 6.276,213.995 6.155,214.184 6.330 M158.904 8.951 C 156.869 9.632,155.041 10.295,154.842 10.423 C 154.518 10.631,154.524 10.641,154.896 10.514 C 155.125 10.436,157.094 9.775,159.271 9.046 C 161.448 8.317,163.089 7.719,162.917 7.716 C 162.745 7.714,160.939 8.270,158.904 8.951 M223.333 8.938 C 225.339 9.604,227.484 10.354,228.100 10.603 C 228.716 10.853,229.258 11.020,229.303 10.975 C 229.491 10.787,220.622 7.695,219.957 7.717 C 219.809 7.722,221.328 8.271,223.333 8.938 M151.771 11.578 C 148.755 12.830,143.125 15.530,143.125 15.726 C 143.125 15.787,144.133 15.332,145.365 14.715 C 146.596 14.099,148.870 13.054,150.417 12.393 C 151.964 11.733,153.268 11.158,153.316 11.117 C 153.547 10.916,152.900 11.109,151.771 11.578 M229.601 11.118 C 229.648 11.160,230.579 11.573,231.668 12.035 C 234.236 13.124,236.060 13.962,238.124 14.999 C 239.041 15.461,239.792 15.788,239.792 15.728 C 239.792 15.566,235.287 13.377,232.378 12.125 C 230.162 11.171,229.311 10.863,229.601 11.118 M200.208 15.208 C 258.480 21.095,298.161 77.436,285.825 136.771 C 283.657 147.198,281.039 154.106,273.745 168.646 C 251.223 213.541,238.327 252.464,237.381 278.399 C 237.231 282.503,236.102 294.120,235.698 295.717 C 234.960 298.631,233.377 301.194,231.616 302.324 L 230.531 303.021 213.703 303.078 L 196.875 303.135 196.868 299.224 C 196.810 266.694,196.280 240.930,195.303 223.229 L 194.981 217.396 195.459 215.109 L 195.938 212.822 197.604 211.914 C 211.146 204.535,223.530 192.979,234.557 177.433 C 249.654 156.150,250.177 139.307,235.956 132.389 C 223.130 126.149,210.999 134.108,201.775 154.814 C 198.216 162.802,193.930 175.649,191.774 184.792 C 191.571 185.651,191.329 186.438,191.235 186.541 C 191.033 186.761,191.064 186.884,189.982 181.458 C 184.306 152.983,169.506 134.943,156.118 140.182 C 140.279 146.380,139.307 175.275,154.313 193.854 C 160.510 201.527,175.121 211.756,183.177 214.062 C 184.628 214.477,184.493 214.000,184.889 220.104 C 186.047 237.931,186.545 256.877,186.735 290.365 L 186.807 303.125 169.903 303.125 L 152.998 303.125 151.916 302.586 C 149.211 301.238,147.148 296.939,146.668 291.648 C 146.539 290.226,146.252 287.281,146.031 285.104 C 145.810 282.927,145.628 280.208,145.626 279.063 C 145.594 255.437,132.386 215.328,108.957 167.708 C 98.749 146.962,95.960 137.322,95.106 119.833 C 92.148 59.265,142.286 9.355,200.208 15.208 M240.017 15.918 C 240.065 15.965,241.135 16.588,242.396 17.302 C 243.656 18.017,244.922 18.738,245.208 18.906 C 245.706 19.197,245.711 19.195,245.313 18.863 C 244.591 18.260,239.538 15.450,240.017 15.918 M131.667 23.001 C 131.667 23.048,131.198 23.423,130.625 23.834 C 130.052 24.246,129.583 24.537,129.583 24.481 C 129.583 24.391,131.481 22.935,131.615 22.922 C 131.643 22.919,131.667 22.955,131.667 23.001 M257.852 27.981 C 257.934 28.114,257.560 27.861,257.022 27.419 C 256.483 26.978,256.042 26.573,256.042 26.520 C 256.042 26.378,257.677 27.697,257.852 27.981 M121.250 31.307 C 121.250 31.338,120.477 32.112,119.531 33.026 L 117.813 34.688 119.474 32.969 C 121.018 31.372,121.250 31.155,121.250 31.307 M117.083 35.473 C 117.083 35.505,116.263 36.325,115.260 37.296 L 113.438 39.063 115.204 37.240 C 116.844 35.547,117.083 35.322,117.083 35.473 M269.063 38.542 C 269.627 39.115,270.042 39.583,269.984 39.583 C 269.927 39.583,269.418 39.115,268.854 38.542 C 268.290 37.969,267.875 37.500,267.932 37.500 C 267.990 37.500,268.498 37.969,269.063 38.542 M111.875 41.107 C 111.875 41.143,111.570 41.447,111.198 41.784 L 110.521 42.396 111.133 41.719 C 111.703 41.088,111.875 40.946,111.875 41.107 M109.792 43.542 C 109.312 44.115,108.873 44.583,108.815 44.583 C 108.758 44.583,109.104 44.115,109.583 43.542 C 110.063 42.969,110.502 42.500,110.560 42.500 C 110.617 42.500,110.271 42.969,109.792 43.542 M279.583 51.875 C 279.828 52.219,279.981 52.500,279.924 52.500 C 279.867 52.500,279.620 52.219,279.375 51.875 C 279.130 51.531,278.977 51.250,279.034 51.250 C 279.091 51.250,279.339 51.531,279.583 51.875 M291.860 76.089 C 291.989 76.459,292.009 76.670,291.904 76.558 C 291.682 76.321,291.384 75.417,291.528 75.417 C 291.582 75.417,291.731 75.719,291.860 76.089 M293.313 80.399 C 293.553 81.134,293.743 81.837,293.733 81.961 C 293.716 82.203,292.725 79.401,292.715 79.080 C 292.702 78.689,292.888 79.099,293.313 80.399 M88.877 83.748 C 88.521 85.007,88.201 85.955,88.167 85.853 C 88.109 85.680,89.113 81.951,89.309 81.615 C 89.565 81.174,89.466 81.663,88.877 83.748 M294.686 85.215 C 294.797 85.949,294.709 85.810,294.353 84.692 C 294.220 84.275,294.224 84.141,294.365 84.282 C 294.481 84.398,294.625 84.817,294.686 85.215 M296.157 91.146 C 296.550 93.286,297.045 95.487,297.063 95.172 C 297.090 94.703,296.272 90.577,296.122 90.429 C 296.058 90.365,296.073 90.688,296.157 91.146 M297.084 96.094 C 297.085 96.237,297.224 97.198,297.393 98.229 C 297.562 99.260,297.715 100.432,297.733 100.833 C 297.757 101.377,297.789 101.436,297.859 101.065 C 297.950 100.583,297.316 95.833,297.160 95.833 C 297.118 95.833,297.084 95.951,297.084 96.094 M297.958 102.083 C 297.954 102.370,298.077 103.870,298.231 105.417 L 298.511 108.229 298.400 105.729 C 298.300 103.465,297.975 100.790,297.958 102.083 M298.633 114.063 C 298.633 117.271,298.662 118.554,298.698 116.914 C 298.733 115.275,298.733 112.650,298.697 111.081 C 298.662 109.513,298.633 110.854,298.633 114.063 M84.252 113.854 C 84.252 115.802,84.283 116.627,84.321 115.687 C 84.360 114.748,84.360 113.154,84.322 112.146 C 84.284 111.137,84.252 111.906,84.252 113.854 M84.398 120.330 C 84.411 121.466,84.495 123.286,84.584 124.375 C 84.693 125.713,84.711 125.072,84.639 122.396 C 84.580 120.219,84.497 118.398,84.454 118.351 C 84.410 118.303,84.385 119.194,84.398 120.330 M84.917 128.021 C 84.973 128.938,85.103 130.156,85.206 130.729 C 85.309 131.302,85.455 132.269,85.531 132.878 C 85.606 133.487,85.713 133.940,85.768 133.885 C 85.857 133.796,85.651 132.115,85.011 127.708 L 84.814 126.354 84.917 128.021 M296.344 138.040 C 296.142 139.005,295.938 139.758,295.893 139.712 C 295.847 139.666,295.979 138.775,296.186 137.732 C 296.393 136.689,296.596 135.936,296.638 136.059 C 296.679 136.183,296.547 137.074,296.344 138.040 M230.030 141.242 C 237.112 143.431,238.122 149.499,233.138 159.919 C 228.260 170.116,215.575 186.222,206.919 193.207 C 205.138 194.644,199.131 198.783,199.006 198.659 C 198.885 198.537,199.727 194.871,201.258 188.854 C 209.932 154.769,219.983 138.138,230.030 141.242 M88.939 146.771 C 88.911 147.088,88.129 144.525,88.144 144.167 C 88.151 143.995,88.337 144.464,88.557 145.208 C 88.777 145.953,88.949 146.656,88.939 146.771 M294.691 145.191 C 294.614 145.542,294.479 145.873,294.390 145.928 C 294.301 145.983,294.327 145.659,294.447 145.208 C 294.701 144.258,294.899 144.244,294.691 145.191 M294.178 146.950 C 293.886 147.718,293.722 147.642,293.993 146.864 C 294.115 146.515,294.254 146.267,294.301 146.315 C 294.348 146.362,294.293 146.648,294.178 146.950 M89.350 147.912 C 89.484 148.310,89.505 148.545,89.395 148.433 C 89.286 148.321,89.129 147.948,89.048 147.604 C 88.857 146.798,89.034 146.979,89.350 147.912 M90.335 151.401 C 90.238 151.498,89.577 149.600,89.599 149.286 C 89.607 149.163,89.794 149.571,90.015 150.192 C 90.235 150.813,90.379 151.357,90.335 151.401 M163.317 150.513 C 169.688 153.741,177.396 168.929,180.505 184.375 C 181.674 190.185,183.514 202.597,183.246 202.865 C 182.978 203.133,176.888 199.450,171.965 196.042 C 163.594 190.247,158.207 183.329,155.417 174.794 C 151.060 161.458,155.852 146.730,163.317 150.513 M291.678 154.659 C 291.386 155.426,291.222 155.350,291.493 154.573 C 291.615 154.223,291.754 153.976,291.801 154.023 C 291.848 154.070,291.793 154.356,291.678 154.659 M98.405 169.635 C 98.583 170.065,98.682 170.417,98.625 170.417 C 98.514 170.417,97.917 169.074,97.917 168.826 C 97.917 168.574,98.071 168.829,98.405 169.635 M108.524 190.938 C 108.524 191.052,108.345 190.818,108.125 190.417 C 107.905 190.016,107.726 189.594,107.726 189.479 C 107.726 189.365,107.905 189.599,108.125 190.000 C 108.345 190.401,108.524 190.823,108.524 190.938 M114.777 205.104 C 114.777 205.219,114.643 205.078,114.479 204.792 C 114.315 204.505,114.181 204.177,114.181 204.063 C 114.181 203.948,114.315 204.089,114.479 204.375 C 114.643 204.661,114.777 204.990,114.777 205.104 M267.721 206.950 C 267.493 207.482,267.261 207.917,267.206 207.917 C 267.151 207.917,267.302 207.446,267.541 206.870 C 267.781 206.294,268.012 205.859,268.056 205.903 C 268.100 205.947,267.949 206.418,267.721 206.950 M115.819 207.604 C 115.819 207.719,115.685 207.578,115.521 207.292 C 115.357 207.005,115.223 206.677,115.223 206.563 C 115.223 206.448,115.357 206.589,115.521 206.875 C 115.685 207.161,115.819 207.490,115.819 207.604 M266.354 210.281 C 266.179 210.699,265.989 211.042,265.932 211.042 C 265.875 211.042,265.970 210.702,266.143 210.287 C 266.316 209.872,266.458 209.481,266.458 209.419 C 266.458 209.357,266.506 209.354,266.565 209.412 C 266.624 209.471,266.529 209.862,266.354 210.281 M261.646 222.344 C 261.190 223.501,260.884 223.989,261.145 223.143 C 261.393 222.337,261.872 221.250,261.979 221.250 C 262.033 221.250,261.883 221.742,261.646 222.344 M124.359 229.988 C 124.344 230.268,124.326 230.270,124.226 230.000 C 124.163 229.828,124.024 229.500,123.919 229.271 C 123.730 228.861,123.732 228.861,124.051 229.259 C 124.229 229.481,124.368 229.809,124.359 229.988 M125.186 232.287 C 125.319 232.685,125.344 232.920,125.242 232.808 C 125.140 232.696,124.948 232.278,124.814 231.880 C 124.681 231.481,124.656 231.247,124.758 231.359 C 124.860 231.471,125.052 231.888,125.186 232.287 M127.058 238.120 C 127.193 238.519,127.213 238.753,127.104 238.641 C 126.994 238.529,126.838 238.156,126.756 237.813 C 126.565 237.006,126.743 237.187,127.058 238.120 M256.154 238.281 C 256.076 238.596,255.929 238.939,255.828 239.042 C 255.727 239.146,255.749 238.888,255.878 238.469 C 256.150 237.583,256.362 237.439,256.154 238.281 M254.695 243.073 C 254.618 243.388,254.471 243.731,254.370 243.834 C 254.269 243.938,254.291 243.680,254.420 243.261 C 254.692 242.375,254.903 242.230,254.695 243.073 M254.178 244.867 C 253.886 245.634,253.722 245.558,253.993 244.781 C 254.115 244.431,254.254 244.184,254.301 244.231 C 254.348 244.279,254.293 244.565,254.178 244.867 M251.042 256.979 C 250.907 257.628,250.839 258.200,250.890 258.251 C 250.940 258.302,251.089 257.810,251.220 257.158 C 251.351 256.506,251.420 255.934,251.372 255.886 C 251.325 255.839,251.176 256.331,251.042 256.979 M133.761 265.013 C 133.999 266.393,134.160 267.625,134.118 267.750 C 134.048 267.960,133.140 262.970,132.993 261.563 C 132.874 260.427,133.299 262.335,133.761 265.013 M134.526 273.438 C 134.588 274.583,134.673 275.560,134.715 275.608 C 134.853 275.763,134.759 273.464,134.585 272.396 C 134.467 271.674,134.449 271.995,134.526 273.438 M134.949 279.688 C 135.010 281.865,135.126 284.068,135.209 284.583 C 135.390 285.719,135.227 280.231,135.001 277.604 C 134.897 276.390,134.878 277.123,134.949 279.688 M135.432 286.684 C 135.441 287.305,135.527 288.234,135.624 288.750 C 135.748 289.407,135.767 289.095,135.687 287.708 C 135.561 285.527,135.408 284.912,135.432 286.684 M247.203 288.299 C 247.119 289.369,247.095 290.289,247.151 290.345 C 247.287 290.482,247.571 286.983,247.452 286.632 C 247.400 286.479,247.288 287.229,247.203 288.299 M135.885 290.938 C 135.879 291.510,135.946 292.495,136.033 293.125 L 136.191 294.271 136.198 293.333 C 136.202 292.818,136.135 291.833,136.050 291.146 L 135.895 289.896 135.885 290.938 M246.583 294.441 C 246.506 295.394,246.352 296.448,246.242 296.785 L 246.041 297.396 246.141 296.716 C 246.196 296.342,246.303 295.287,246.379 294.372 C 246.456 293.457,246.565 292.708,246.621 292.708 C 246.678 292.708,246.661 293.488,246.583 294.441 M137.048 297.292 C 137.052 297.483,136.985 297.443,136.875 297.188 C 136.777 296.958,136.699 296.583,136.702 296.354 C 136.709 295.861,137.037 296.750,137.048 297.292 M146.857 312.236 C 147.452 312.672,149.969 313.728,150.417 313.729 C 150.589 313.729,150.161 313.511,149.467 313.243 C 148.772 312.976,147.788 312.557,147.279 312.312 C 146.593 311.982,146.484 311.962,146.857 312.236 M151.250 313.954 C 151.764 314.123,153.484 314.237,153.316 314.091 C 153.268 314.050,152.667 313.964,151.979 313.900 C 151.203 313.828,150.926 313.848,151.250 313.954 M230.521 313.958 L 229.688 314.108 230.417 314.116 C 230.818 314.121,231.380 314.050,231.667 313.958 C 232.336 313.744,231.718 313.744,230.521 313.958 M172.673 314.323 C 183.138 314.353,200.200 314.353,210.589 314.323 C 220.979 314.293,212.417 314.269,191.563 314.269 C 170.708 314.269,162.208 314.293,172.673 314.323 M152.764 317.277 C 152.279 317.357,151.823 317.483,151.749 317.557 C 151.675 317.630,151.978 317.624,152.422 317.543 C 153.476 317.351,229.431 317.351,230.521 317.543 C 231.225 317.667,231.290 317.651,230.938 317.439 C 230.474 317.159,154.430 317.002,152.764 317.277 M152.708 317.711 C 151.699 317.889,150.335 318.454,149.167 319.177 C 148.462 319.613,148.455 319.614,148.958 319.191 C 149.245 318.950,149.878 318.557,150.365 318.316 C 151.346 317.832,151.547 317.606,150.713 317.923 C 149.345 318.443,146.483 320.993,146.762 321.444 C 146.841 321.572,146.794 321.651,146.656 321.620 C 146.519 321.588,146.359 321.693,146.301 321.852 C 146.229 322.051,146.286 322.089,146.483 321.975 C 146.653 321.876,146.700 321.886,146.597 321.998 C 146.502 322.102,146.314 322.189,146.181 322.191 C 146.047 322.193,145.944 322.399,145.953 322.649 C 145.961 322.900,145.894 323.058,145.803 323.002 C 145.539 322.839,145.052 324.222,144.791 325.874 C 144.536 327.484,144.889 330.356,145.332 330.275 C 145.443 330.255,145.532 330.489,145.528 330.796 C 145.524 331.103,145.619 331.337,145.740 331.316 C 145.860 331.295,146.086 331.482,146.242 331.733 C 146.508 332.160,146.502 332.168,146.147 331.875 C 145.784 331.575,145.783 331.589,146.112 332.226 C 146.301 332.592,146.564 332.958,146.697 333.040 C 146.848 333.133,146.883 333.098,146.791 332.949 C 146.565 332.584,146.786 332.661,147.110 333.061 C 147.304 333.300,147.312 333.363,147.135 333.257 C 146.573 332.919,146.920 333.498,147.760 334.299 C 149.033 335.513,151.376 337.027,151.614 336.789 C 151.673 336.730,151.451 336.565,151.121 336.422 C 150.169 336.010,148.277 334.685,147.710 334.034 C 147.209 333.458,147.216 333.460,147.919 334.084 C 149.009 335.054,150.419 335.948,151.354 336.263 C 152.319 336.588,152.738 336.875,152.246 336.875 C 151.614 336.875,149.956 337.712,148.706 338.662 C 148.020 339.185,147.523 339.506,147.603 339.377 C 147.682 339.248,148.320 338.726,149.020 338.217 C 149.719 337.708,150.222 337.292,150.137 337.292 C 149.466 337.292,146.553 340.064,146.802 340.466 C 146.884 340.600,146.841 340.628,146.693 340.537 C 146.341 340.319,145.114 343.103,144.794 344.844 C 144.441 346.766,145.194 350.708,145.837 350.310 C 145.949 350.241,145.982 350.331,145.912 350.512 C 145.769 350.884,146.387 351.943,146.652 351.780 C 146.749 351.720,146.815 351.834,146.799 352.033 C 146.784 352.233,146.888 352.372,147.031 352.344 C 147.174 352.315,147.281 352.362,147.267 352.448 C 147.206 352.837,147.310 353.125,147.512 353.125 C 147.634 353.125,147.667 353.008,147.586 352.865 C 147.505 352.721,147.804 352.941,148.251 353.353 C 149.337 354.355,150.422 354.982,151.815 355.413 L 152.969 355.770 152.220 355.892 C 150.996 356.091,149.353 357.032,148.026 358.294 C 147.341 358.946,147.006 359.221,147.281 358.906 C 147.556 358.591,147.694 358.336,147.588 358.340 C 147.362 358.347,146.131 359.940,145.913 360.509 C 145.797 360.811,145.830 360.862,146.058 360.730 C 146.234 360.628,146.284 360.635,146.181 360.748 C 146.085 360.852,145.898 360.939,145.764 360.940 C 145.630 360.942,145.524 361.193,145.528 361.498 C 145.532 361.803,145.468 362.011,145.387 361.961 C 144.925 361.675,144.499 365.005,144.793 366.605 C 145.096 368.260,146.341 371.139,146.666 370.938 C 146.786 370.863,146.860 370.927,146.828 371.078 C 146.797 371.230,146.879 371.334,147.011 371.309 C 147.144 371.284,147.378 371.419,147.532 371.609 C 147.729 371.853,147.735 371.909,147.552 371.799 C 146.885 371.398,147.400 372.136,148.333 372.917 C 148.906 373.396,149.375 373.694,149.375 373.578 C 149.375 373.462,149.914 373.631,150.573 373.955 C 152.762 375.031,151.568 375.000,191.458 375.000 C 230.908 375.000,230.031 375.020,232.240 374.047 C 232.841 373.782,233.333 373.611,233.333 373.669 C 233.333 373.893,231.041 374.770,229.876 374.993 C 228.984 375.163,218.222 375.211,190.729 375.166 L 152.813 375.104 151.575 374.637 C 150.894 374.380,150.425 374.254,150.533 374.356 C 151.578 375.348,149.992 375.308,190.729 375.374 C 218.307 375.419,228.987 375.372,229.896 375.200 C 231.634 374.872,233.433 373.965,234.844 372.704 C 235.915 371.746,236.465 370.971,235.781 371.382 C 235.604 371.488,235.612 371.425,235.807 371.186 C 236.140 370.775,236.346 370.714,236.118 371.094 C 236.017 371.262,236.090 371.250,236.324 371.060 C 236.523 370.899,236.636 370.636,236.574 370.477 C 236.513 370.317,236.552 370.242,236.660 370.308 C 236.769 370.375,237.011 370.134,237.198 369.771 C 237.480 369.227,237.490 369.080,237.259 368.934 C 237.042 368.796,237.059 368.756,237.336 368.753 C 238.522 368.743,238.522 361.674,237.336 361.663 C 237.057 361.661,237.041 361.621,237.261 361.482 C 237.482 361.341,237.491 361.206,237.303 360.854 C 237.171 360.607,236.959 360.469,236.832 360.547 C 236.691 360.635,236.661 360.594,236.757 360.440 C 236.948 360.131,236.343 359.167,235.958 359.167 C 235.803 359.167,235.547 359.008,235.390 358.814 C 235.196 358.575,235.188 358.512,235.365 358.618 C 235.508 358.704,235.625 358.690,235.625 358.586 C 235.625 358.355,234.931 357.708,234.683 357.708 C 234.585 357.708,234.686 357.846,234.908 358.014 C 235.131 358.182,235.251 358.323,235.176 358.327 C 235.101 358.330,234.667 358.029,234.212 357.656 C 233.757 357.284,233.209 356.860,232.995 356.714 C 232.664 356.490,232.684 356.486,233.125 356.688 C 233.411 356.820,233.857 357.119,234.115 357.354 C 234.372 357.589,234.583 357.694,234.582 357.588 C 234.580 357.276,233.193 356.424,232.562 356.347 C 231.564 356.226,229.834 355.655,230.417 355.639 C 231.398 355.612,233.557 354.394,234.965 353.074 C 235.729 352.357,236.175 351.982,235.957 352.240 C 235.739 352.497,235.645 352.708,235.749 352.707 C 235.959 352.705,236.769 351.574,237.003 350.955 C 237.120 350.648,237.087 350.596,236.858 350.728 C 236.683 350.830,236.633 350.823,236.736 350.710 C 236.832 350.606,237.011 350.521,237.135 350.521 C 237.260 350.521,237.405 350.391,237.458 350.231 C 237.516 350.056,237.462 349.999,237.319 350.087 C 237.189 350.167,237.085 350.157,237.087 350.064 C 237.092 349.799,237.424 349.342,237.627 349.318 C 238.512 349.218,238.424 342.881,237.536 342.786 C 237.024 342.732,236.987 342.697,237.259 342.524 C 237.490 342.378,237.480 342.231,237.198 341.688 C 237.011 341.325,236.769 341.083,236.660 341.150 C 236.552 341.217,236.515 341.138,236.577 340.974 C 236.829 340.319,232.892 336.837,231.954 336.884 C 231.853 336.889,232.122 337.079,232.552 337.306 C 233.712 337.918,233.498 337.974,232.240 337.388 C 231.638 337.108,230.976 336.878,230.769 336.877 C 230.562 336.876,230.450 336.781,230.521 336.667 C 230.592 336.552,230.786 336.458,230.952 336.458 C 231.473 336.458,233.191 335.586,234.098 334.861 C 234.575 334.479,235.104 334.167,235.273 334.167 C 235.442 334.167,235.639 334.013,235.712 333.825 C 235.827 333.525,235.797 333.518,235.474 333.773 C 235.138 334.036,235.130 334.029,235.388 333.700 C 235.544 333.501,235.751 333.387,235.848 333.446 C 236.107 333.606,236.729 332.561,236.548 332.269 C 236.452 332.114,236.482 332.074,236.627 332.163 C 236.955 332.366,237.795 330.595,238.122 329.009 C 238.490 327.227,238.050 323.514,237.511 323.848 C 237.414 323.907,237.279 323.808,237.209 323.628 C 237.029 323.159,237.052 323.081,237.319 323.246 C 237.462 323.334,237.516 323.278,237.458 323.102 C 237.405 322.943,237.260 322.813,237.135 322.813 C 237.011 322.813,236.832 322.727,236.736 322.623 C 236.635 322.513,236.672 322.496,236.823 322.583 C 236.966 322.665,237.083 322.657,237.082 322.564 C 237.080 322.294,236.314 321.209,236.179 321.285 C 236.112 321.323,235.561 320.872,234.955 320.283 C 234.350 319.694,233.339 318.922,232.708 318.567 C 232.078 318.211,231.648 317.920,231.753 317.919 C 232.099 317.915,233.844 319.003,234.531 319.651 C 234.904 320.003,235.208 320.201,235.208 320.093 C 235.208 319.536,232.478 317.870,231.375 317.754 C 229.782 317.586,153.652 317.544,152.708 317.711 M148.333 319.857 C 148.333 319.893,148.029 320.197,147.656 320.534 L 146.979 321.146 147.591 320.469 C 148.161 319.838,148.333 319.696,148.333 319.857 M235.522 320.626 C 235.730 320.856,235.943 321.001,235.996 320.949 C 236.109 320.836,235.515 320.208,235.295 320.208 C 235.212 320.208,235.314 320.396,235.522 320.626 M145.023 326.785 C 144.915 327.521,144.832 327.757,144.817 327.370 C 144.790 326.672,145.007 325.354,145.129 325.476 C 145.169 325.517,145.122 326.106,145.023 326.785 M238.067 327.969 C 238.021 328.341,237.983 328.036,237.983 327.292 C 237.983 326.547,238.021 326.242,238.067 326.615 C 238.114 326.987,238.114 327.596,238.067 327.969 M234.167 335.022 C 233.766 335.368,232.922 335.892,232.292 336.187 C 231.652 336.486,231.271 336.768,231.430 336.824 C 231.587 336.880,231.774 336.839,231.847 336.733 C 231.920 336.627,232.307 336.388,232.709 336.202 C 233.356 335.901,235.266 334.393,235.000 334.392 C 234.943 334.392,234.568 334.675,234.167 335.022 M235.104 339.195 C 235.927 340.079,235.571 339.797,233.542 337.955 C 233.484 337.903,233.625 337.959,233.854 338.080 C 234.083 338.201,234.646 338.703,235.104 339.195 M238.069 346.818 C 238.024 347.251,237.986 346.948,237.985 346.146 C 237.984 345.344,238.021 344.990,238.067 345.360 C 238.113 345.730,238.114 346.386,238.069 346.818 M145.058 346.771 C 145.131 347.547,145.110 347.824,145.004 347.500 C 144.835 346.986,144.721 345.266,144.867 345.434 C 144.908 345.482,144.994 346.083,145.058 346.771 M234.674 353.557 C 234.223 354.019,233.209 354.720,232.420 355.115 C 231.631 355.510,231.102 355.833,231.245 355.833 C 232.044 355.833,235.925 353.147,235.598 352.821 C 235.541 352.763,235.125 353.094,234.674 353.557 M147.708 353.202 C 147.708 353.577,150.607 355.615,151.146 355.619 C 151.260 355.620,150.839 355.330,150.208 354.974 C 149.578 354.618,148.758 354.038,148.385 353.685 C 148.013 353.332,147.708 353.115,147.708 353.202 M149.663 356.518 C 149.093 356.845,147.708 358.071,147.708 358.249 C 147.708 358.325,148.113 358.023,148.607 357.579 C 149.102 357.134,149.688 356.659,149.910 356.523 C 150.440 356.196,150.231 356.192,149.663 356.518 M238.067 365.885 C 238.021 366.258,237.983 365.953,237.983 365.208 C 237.983 364.464,238.021 364.159,238.067 364.531 C 238.114 364.904,238.114 365.513,238.067 365.885 M144.939 365.675 C 144.889 365.934,144.847 365.771,144.844 365.313 C 144.842 364.854,144.883 364.642,144.935 364.841 C 144.987 365.041,144.989 365.416,144.939 365.675 M145.371 367.708 C 145.368 368.176,145.351 368.166,145.208 367.604 C 144.984 366.723,144.984 365.966,145.208 366.667 C 145.300 366.953,145.373 367.422,145.371 367.708 M235.410 371.987 C 235.264 372.163,234.760 372.596,234.291 372.949 C 233.560 373.499,233.587 373.454,234.479 372.637 C 235.554 371.652,235.873 371.430,235.410 371.987 M149.092 373.172 C 149.172 373.303,148.894 373.146,148.473 372.826 C 148.053 372.505,147.708 372.200,147.708 372.149 C 147.708 372.004,148.927 372.906,149.092 373.172 M176.615 378.073 C 184.779 378.103,198.138 378.103,206.302 378.073 C 214.466 378.043,207.786 378.018,191.458 378.018 C 175.130 378.018,168.451 378.043,176.615 378.073 M161.650 378.699 C 161.923 379.184,162.990 380.399,162.792 380.000 C 162.688 379.791,162.786 379.819,163.089 380.084 C 163.595 380.528,163.719 380.823,163.229 380.417 C 163.057 380.274,162.919 380.239,162.923 380.339 C 162.930 380.565,164.108 381.875,164.304 381.875 C 164.383 381.875,164.221 381.617,163.943 381.302 C 163.458 380.751,163.465 380.752,164.115 381.341 C 164.781 381.943,164.993 382.232,164.583 381.979 C 164.469 381.908,164.375 381.937,164.375 382.042 C 164.375 382.521,168.956 386.588,171.036 387.956 L 171.979 388.576 171.250 387.925 C 170.745 387.474,171.066 387.622,172.292 388.404 C 184.535 396.215,200.510 395.845,212.074 387.482 C 213.044 386.781,213.707 386.363,213.549 386.554 C 212.746 387.521,208.314 390.143,205.104 391.550 C 204.188 391.952,203.543 392.283,203.672 392.286 C 205.689 392.333,212.927 387.666,217.031 383.672 C 219.074 381.683,220.110 380.427,219.010 381.270 C 218.810 381.424,218.873 381.295,219.151 380.983 C 219.712 380.354,220.002 380.211,219.560 380.781 C 219.331 381.078,219.364 381.072,219.743 380.749 C 220.203 380.357,220.403 379.855,220.000 380.104 C 219.661 380.314,219.763 380.075,220.144 379.765 C 220.448 379.518,220.471 379.522,220.313 379.792 C 220.154 380.061,220.177 380.065,220.481 379.818 C 220.856 379.514,220.977 379.053,220.625 379.271 C 220.286 379.480,220.388 379.241,220.769 378.932 C 221.073 378.685,221.096 378.689,220.938 378.958 C 220.779 379.228,220.802 379.232,221.106 378.985 C 221.300 378.828,221.458 378.617,221.458 378.518 C 221.458 378.415,208.347 378.336,191.452 378.336 C 162.979 378.336,161.456 378.355,161.650 378.699 M218.542 381.932 C 218.542 381.963,217.768 382.737,216.823 383.651 L 215.104 385.313 216.766 383.594 C 218.309 381.997,218.542 381.780,218.542 381.932 M166.146 383.542 C 166.710 384.115,167.125 384.583,167.068 384.583 C 167.010 384.583,166.502 384.115,165.938 383.542 C 165.373 382.969,164.958 382.500,165.016 382.500 C 165.073 382.500,165.582 382.969,166.146 383.542 M170.313 387.144 C 170.886 387.736,169.073 386.332,168.198 385.507 C 167.357 384.715,167.433 384.755,168.646 385.742 C 169.448 386.395,170.198 387.026,170.313 387.144 M172.500 388.949 C 173.099 389.457,178.179 391.994,178.958 392.174 L 179.479 392.294 178.958 392.053 C 176.677 391.000,173.692 389.522,172.917 389.062 C 172.219 388.649,172.112 388.620,172.500 388.949 M179.583 392.362 C 179.583 392.417,180.122 392.620,180.781 392.814 C 181.440 393.009,182.214 393.248,182.500 393.346 C 182.786 393.444,183.396 393.573,183.854 393.633 L 184.688 393.740 183.958 393.520 C 183.299 393.321,180.861 392.619,179.948 392.365 C 179.747 392.309,179.583 392.308,179.583 392.362 M200.000 393.251 C 199.026 393.524,198.604 393.695,199.063 393.630 C 200.032 393.494,202.083 392.928,202.083 392.798 C 202.083 392.673,201.992 392.693,200.000 393.251 M185.313 393.950 C 185.949 394.120,187.641 394.229,187.483 394.090 C 187.435 394.048,186.786 393.962,186.042 393.898 C 185.188 393.826,184.919 393.845,185.313 393.950 M196.250 393.958 L 195.313 394.104 196.146 394.111 C 196.604 394.114,197.260 394.046,197.604 393.958 C 198.438 393.746,197.614 393.746,196.250 393.958 M189.167 394.430 C 190.299 394.574,194.975 394.470,195.148 394.297 C 195.177 394.267,193.539 394.247,191.507 394.251 C 188.585 394.257,188.096 394.294,189.167 394.430 " stroke="none" fill="#000000" fill-rule="evenodd"></path><path id="path1" d="M187.760 14.935 C 187.961 14.988,188.289 14.988,188.490 14.935 C 188.690 14.883,188.526 14.840,188.125 14.840 C 187.724 14.840,187.560 14.883,187.760 14.935 M194.222 14.941 C 194.538 14.989,195.007 14.988,195.263 14.938 C 195.520 14.889,195.260 14.850,194.688 14.851 C 194.115 14.853,193.905 14.893,194.222 14.941 M94.860 114.063 C 94.861 114.865,94.899 115.167,94.944 114.735 C 94.989 114.303,94.988 113.646,94.942 113.277 C 94.896 112.907,94.859 113.260,94.860 114.063 M227.035 130.359 C 227.409 130.406,227.972 130.405,228.285 130.357 C 228.598 130.310,228.292 130.272,227.604 130.273 C 226.917 130.274,226.661 130.313,227.035 130.359 M160.260 139.310 C 160.461 139.363,160.789 139.363,160.990 139.310 C 161.190 139.258,161.026 139.215,160.625 139.215 C 160.224 139.215,160.060 139.258,160.260 139.310 M246.318 148.854 C 246.319 149.656,246.357 149.959,246.402 149.527 C 246.447 149.094,246.446 148.438,246.400 148.068 C 246.354 147.698,246.317 148.052,246.318 148.854 M196.315 248.646 C 196.316 249.333,196.355 249.589,196.401 249.215 C 196.447 248.841,196.446 248.278,196.399 247.965 C 196.351 247.652,196.313 247.958,196.315 248.646 M196.518 259.479 C 196.519 260.052,196.560 260.262,196.608 259.945 C 196.656 259.628,196.654 259.160,196.605 258.903 C 196.556 258.647,196.516 258.906,196.518 259.479 M186.538 271.354 C 186.538 272.729,186.572 273.265,186.613 272.544 C 186.654 271.823,186.653 270.698,186.612 270.044 C 186.571 269.390,186.537 269.979,186.538 271.354 M196.745 285.625 C 196.745 286.943,196.779 287.482,196.821 286.823 C 196.862 286.164,196.862 285.086,196.821 284.427 C 196.779 283.768,196.745 284.307,196.745 285.625 M186.735 299.479 C 186.736 300.281,186.774 300.584,186.819 300.152 C 186.864 299.719,186.863 299.063,186.817 298.693 C 186.771 298.323,186.734 298.677,186.735 299.479 " stroke="none" fill="#252300" fill-rule="evenodd"></path><path id="path2" d="M189.115 14.939 C 189.372 14.988,189.794 14.988,190.052 14.939 C 190.310 14.889,190.099 14.848,189.583 14.848 C 189.068 14.848,188.857 14.889,189.115 14.939 M191.412 14.944 C 191.902 14.988,192.652 14.988,193.078 14.943 C 193.505 14.898,193.104 14.862,192.188 14.863 C 191.271 14.864,190.922 14.900,191.412 14.944 M287.995 113.958 C 287.995 115.276,288.029 115.815,288.071 115.156 C 288.112 114.497,288.112 113.419,288.071 112.760 C 288.029 112.102,287.995 112.641,287.995 113.958 M95.257 123.333 C 95.257 123.734,95.300 123.898,95.352 123.698 C 95.404 123.497,95.404 123.169,95.352 122.969 C 95.300 122.768,95.257 122.932,95.257 123.333 M211.042 189.271 C 210.188 190.130,209.536 190.833,209.594 190.833 C 209.651 190.833,210.396 190.130,211.250 189.271 C 212.104 188.411,212.755 187.708,212.698 187.708 C 212.641 187.708,211.895 188.411,211.042 189.271 M195.678 230.104 C 195.680 230.563,195.723 230.725,195.772 230.466 C 195.822 230.207,195.820 229.832,195.768 229.633 C 195.716 229.434,195.675 229.646,195.678 230.104 M185.673 236.458 C 185.673 236.859,185.716 237.023,185.769 236.823 C 185.821 236.622,185.821 236.294,185.769 236.094 C 185.716 235.893,185.673 236.057,185.673 236.458 M196.090 240.417 C 196.090 240.818,196.133 240.982,196.185 240.781 C 196.238 240.581,196.238 240.253,196.185 240.052 C 196.133 239.852,196.090 240.016,196.090 240.417 M196.298 246.875 C 196.298 247.276,196.341 247.440,196.394 247.240 C 196.446 247.039,196.446 246.711,196.394 246.510 C 196.341 246.310,196.298 246.474,196.298 246.875 M186.108 248.958 C 186.108 249.703,186.146 250.008,186.192 249.635 C 186.239 249.263,186.239 248.654,186.192 248.281 C 186.146 247.909,186.108 248.214,186.108 248.958 M196.523 257.396 C 196.524 258.083,196.563 258.339,196.609 257.965 C 196.656 257.591,196.655 257.028,196.607 256.715 C 196.560 256.402,196.522 256.708,196.523 257.396 M186.310 258.021 C 186.311 258.594,186.352 258.803,186.399 258.487 C 186.447 258.170,186.446 257.701,186.397 257.445 C 186.347 257.189,186.308 257.448,186.310 258.021 M186.547 278.125 C 186.547 280.589,186.577 281.596,186.614 280.365 C 186.651 279.133,186.651 277.117,186.614 275.885 C 186.577 274.654,186.547 275.661,186.547 278.125 M196.756 278.750 C 196.756 281.328,196.786 282.383,196.822 281.094 C 196.859 279.805,196.859 277.695,196.822 276.406 C 196.786 275.117,196.756 276.172,196.756 278.750 M145.695 280.208 C 145.695 281.068,145.732 281.419,145.777 280.990 C 145.822 280.560,145.822 279.857,145.777 279.427 C 145.732 278.997,145.695 279.349,145.695 280.208 M186.731 301.979 C 186.732 302.667,186.771 302.923,186.818 302.548 C 186.864 302.174,186.863 301.611,186.816 301.298 C 186.768 300.985,186.730 301.292,186.731 301.979 " stroke="none" fill="#514e00" fill-rule="evenodd"></path><path id="path3" d="M185.260 15.144 C 185.461 15.196,185.789 15.196,185.990 15.144 C 186.190 15.091,186.026 15.048,185.625 15.048 C 185.224 15.048,185.060 15.091,185.260 15.144 M196.927 15.144 C 197.128 15.196,197.456 15.196,197.656 15.144 C 197.857 15.091,197.693 15.048,197.292 15.048 C 196.891 15.048,196.727 15.091,196.927 15.144 M124.474 42.969 L 122.813 44.688 124.531 43.026 C 125.477 42.112,126.250 41.338,126.250 41.307 C 126.250 41.155,126.018 41.372,124.474 42.969 M287.757 108.958 C 287.757 109.359,287.800 109.523,287.852 109.323 C 287.904 109.122,287.904 108.794,287.852 108.594 C 287.800 108.393,287.757 108.557,287.757 108.958 M95.053 109.896 C 95.055 110.354,95.098 110.517,95.147 110.258 C 95.197 109.999,95.195 109.624,95.143 109.425 C 95.091 109.225,95.050 109.438,95.053 109.896 M95.057 117.500 C 95.057 118.016,95.097 118.227,95.147 117.969 C 95.197 117.711,95.197 117.289,95.147 117.031 C 95.097 116.773,95.057 116.984,95.057 117.500 M287.761 119.063 C 287.763 119.521,287.806 119.684,287.856 119.425 C 287.906 119.166,287.904 118.791,287.851 118.591 C 287.799 118.392,287.759 118.604,287.761 119.063 M213.013 136.927 L 211.979 138.021 213.073 136.987 C 213.674 136.418,214.167 135.926,214.167 135.893 C 214.167 135.738,213.974 135.911,213.013 136.927 M220.000 144.688 C 219.494 145.203,219.127 145.625,219.184 145.625 C 219.241 145.625,219.702 145.203,220.208 144.688 C 220.714 144.172,221.082 143.750,221.024 143.750 C 220.967 143.750,220.506 144.172,220.000 144.688 M236.098 148.958 C 236.098 149.474,236.139 149.685,236.189 149.427 C 236.238 149.169,236.238 148.747,236.189 148.490 C 236.139 148.232,236.098 148.443,236.098 148.958 M157.799 151.302 L 157.188 151.979 157.865 151.367 C 158.237 151.031,158.542 150.726,158.542 150.690 C 158.542 150.529,158.370 150.671,157.799 151.302 M165.208 190.521 C 165.831 191.151,166.387 191.667,166.444 191.667 C 166.501 191.667,166.039 191.151,165.417 190.521 C 164.794 189.891,164.238 189.375,164.181 189.375 C 164.124 189.375,164.586 189.891,165.208 190.521 M218.538 196.406 L 216.146 198.854 218.594 196.462 C 219.940 195.146,221.042 194.044,221.042 194.014 C 221.042 193.864,220.761 194.132,218.538 196.406 M195.465 225.208 C 195.465 225.609,195.508 225.773,195.560 225.573 C 195.613 225.372,195.613 225.044,195.560 224.844 C 195.508 224.643,195.465 224.807,195.465 225.208 M185.257 228.750 C 185.257 229.151,185.300 229.315,185.352 229.115 C 185.404 228.914,185.404 228.586,185.352 228.385 C 185.300 228.185,185.257 228.349,185.257 228.750 M195.882 233.750 C 195.882 234.151,195.925 234.315,195.977 234.115 C 196.029 233.914,196.029 233.586,195.977 233.385 C 195.925 233.185,195.882 233.349,195.882 233.750 M185.678 237.813 C 185.680 238.271,185.723 238.434,185.772 238.175 C 185.822 237.916,185.820 237.541,185.768 237.341 C 185.716 237.142,185.675 237.354,185.678 237.813 M196.101 238.854 C 196.103 239.427,196.143 239.637,196.191 239.320 C 196.239 239.003,196.238 238.535,196.188 238.278 C 196.139 238.022,196.100 238.281,196.101 238.854 M185.890 243.333 C 185.890 243.849,185.931 244.060,185.980 243.802 C 186.030 243.544,186.030 243.122,185.980 242.865 C 185.931 242.607,185.890 242.818,185.890 243.333 M196.303 245.521 C 196.305 245.979,196.348 246.142,196.397 245.883 C 196.447 245.624,196.445 245.249,196.393 245.050 C 196.341 244.850,196.300 245.063,196.303 245.521 M186.101 251.146 C 186.103 251.719,186.143 251.928,186.191 251.612 C 186.239 251.295,186.238 250.826,186.188 250.570 C 186.139 250.314,186.100 250.573,186.101 251.146 M196.533 254.375 C 196.533 255.464,196.569 255.909,196.611 255.365 C 196.654 254.820,196.654 253.930,196.611 253.385 C 196.569 252.841,196.533 253.286,196.533 254.375 M186.331 261.563 C 186.331 263.052,186.364 263.634,186.405 262.856 C 186.445 262.078,186.445 260.859,186.404 260.148 C 186.363 259.436,186.331 260.073,186.331 261.563 M196.751 271.042 C 196.751 272.818,196.782 273.544,196.822 272.656 C 196.861 271.768,196.861 270.315,196.822 269.427 C 196.782 268.539,196.751 269.266,196.751 271.042 M145.673 278.125 C 145.673 278.526,145.716 278.690,145.769 278.490 C 145.821 278.289,145.821 277.961,145.769 277.760 C 145.716 277.560,145.673 277.724,145.673 278.125 M237.155 280.521 C 237.156 281.438,237.192 281.787,237.236 281.297 C 237.280 280.807,237.280 280.057,237.235 279.630 C 237.190 279.203,237.154 279.604,237.155 280.521 M186.540 285.208 C 186.540 286.755,186.573 287.388,186.613 286.615 C 186.653 285.841,186.653 284.576,186.613 283.802 C 186.573 283.029,186.540 283.661,186.540 285.208 M196.963 298.542 C 196.963 301.005,196.994 302.013,197.030 300.781 C 197.067 299.549,197.067 297.534,197.030 296.302 C 196.994 295.070,196.963 296.078,196.963 298.542 " stroke="none" fill="#a79e00" fill-rule="evenodd"></path><path id="path4" d="M185.313 15.127 C 120.579 20.084,78.947 86.361,100.895 149.518 C 102.328 153.643,104.365 158.206,108.408 166.352 C 132.016 213.915,144.737 252.044,145.733 278.229 C 145.853 281.364,146.013 283.385,146.767 291.250 C 147.327 297.095,149.219 301.148,152.034 302.535 L 153.021 303.021 169.865 303.079 L 186.709 303.137 186.575 286.621 C 186.301 252.837,185.921 238.347,184.887 222.188 C 184.361 213.971,184.434 214.439,183.650 214.312 C 177.489 213.312,161.174 202.197,154.845 194.688 C 141.006 178.268,139.560 152.577,151.908 142.515 C 165.932 131.087,183.656 149.290,190.184 181.827 L 191.156 186.674 191.751 184.327 C 202.459 142.042,217.922 123.725,235.772 132.181 C 251.830 139.788,249.569 159.323,229.779 183.955 C 219.417 196.852,209.065 205.925,197.991 211.816 C 195.978 212.887,195.985 212.877,195.459 215.729 C 195.108 217.636,195.097 218.142,195.332 221.688 C 196.121 233.625,196.614 250.348,196.769 270.417 C 196.832 278.495,196.939 289.162,197.008 294.122 L 197.133 303.139 213.618 303.080 L 230.104 303.021 231.175 302.456 C 235.071 300.401,236.382 295.147,237.273 278.021 C 238.677 251.041,251.590 212.123,273.442 169.014 C 280.641 154.810,283.377 147.670,285.595 137.292 C 298.087 78.849,259.735 22.684,202.500 15.600 C 199.207 15.193,188.358 14.894,185.313 15.127 M226.250 141.054 C 216.838 142.656,207.983 161.145,199.292 197.344 C 198.936 198.827,198.719 198.879,201.845 196.737 C 207.419 192.920,210.612 190.065,215.792 184.271 C 232.430 165.659,239.977 149.066,234.238 143.719 C 232.166 141.789,228.709 140.635,226.250 141.054 M160.104 150.004 C 156.192 150.831,153.238 158.873,153.939 166.785 C 154.984 178.565,161.259 188.540,172.500 196.288 C 176.384 198.965,181.391 202.039,182.643 202.515 L 183.167 202.714 183.023 201.409 C 182.542 197.023,181.223 188.528,180.394 184.479 C 176.504 165.475,166.592 148.633,160.104 150.004 " stroke="none" fill="#fff600" fill-rule="evenodd"></path></g></svg>