<svg id="Layer_1" data-name="Layer 1" xmlns="http://www.w3.org/2000/svg" viewBox="0 0 256 256"><defs><style>.cls-1{fill-rule:evenodd;}.cls-2{fill:none;stroke:#000;stroke-miterlimit:10;stroke-width:5px;}</style></defs><title>NDFlogo</title><path d="M92.47,49H80c-6.47-7.19-8.5-9.58-11-9.58H51.22c-2.48,0-4.48,2.39-11,9.58H37.55V45.83H30.7V49H28c-3.55,0-6.75,2.64-6.75,6.13V90.28A6.94,6.94,0,0,0,28,96.93H92.47c3.54,0,6.14-3.15,6.14-6.65V55.15A6,6,0,0,0,92.47,49Zm2.92,41.26a3.22,3.22,0,0,1-2.92,3.46H28a3.78,3.78,0,0,1-3.53-3.46V55.15c0-1.64,1.64-2.94,3.53-2.94H41.64l1-.63c.81-.9,1.55-2,2.24-2.76,2.27-2.53,3.93-4.33,5.1-5.37.94-.84,1.25-.82,1.25-.82H69s.32,0,1.35.9c1.23,1.1,3,3.29,5.36,5.95l1.88,2.1,1,.63H92.47a2.77,2.77,0,0,1,2.92,2.94V90.28Z"/><path d="M59.92,54.91A17.07,17.07,0,1,0,77.15,72,17.18,17.18,0,0,0,59.92,54.91Zm0,30.94A13.88,13.88,0,1,1,73.93,72,13.93,13.93,0,0,1,59.92,85.85Z"/><rect x="79.27" y="55.41" width="3.43" height="3.39"/><ellipse cx="59.92" cy="71.98" rx="6.45" ry="6.39"/><g id="Group"><path id="Shape" class="cls-1" d="M216.57,57.94V71.47c0,9-9.11,18-18.21,18v9H212v4.51H180.14V98.54H193.8v-9c-9.11,0-18.21-9-18.21-18V57.94h4.55V71.47C180.14,78.24,187,85,193.8,85h4.56C205.19,85,212,78.24,212,71.47V57.94ZM193.82,30.88h4.51a9,9,0,0,1,9.13,9V71.51a9.08,9.08,0,0,1-9.13,9h-4.51a9,9,0,0,1-9.13-9V39.86A9.08,9.08,0,0,1,193.82,30.88Z"/></g><path d="M103.71,169.21c-2.83,2.81-2.08,3-1.89,3.25l16,15.1a2.15,2.15,0,0,1,.7,1.48h0a2.15,2.15,0,0,1-.7,1.48s-15.79,14.9-16,15.1-.94.44,1.89,3.24,3.28,2.16,3.42,2l12-11.34.05-.05.08,0c.41-.34,1.74-1.87,1.74-.57v27.91a2,2,0,0,0,2.07,1.78,2.23,2.23,0,0,0,1.58-.62h0l21.87-20.67a1.76,1.76,0,0,0,.18-2.59L131.76,190.5a1.75,1.75,0,0,1,0-2.93l14.94-14.16a1.76,1.76,0,0,0-.18-2.59l-21.87-20.67h0a2.2,2.2,0,0,0-1.57-.62,1.94,1.94,0,0,0-2.06,1.78v27.92c0,1.31-1.34-.23-1.75-.56,0,0,0,0-.07-.06l0-.05-12-11.34C107,167.06,106.54,166.41,103.71,169.21ZM128.64,165c0-1.16,1.34.41,1.75.78l5.43,5.15a1.73,1.73,0,0,1,.51,1.27,1.89,1.89,0,0,1-.5,1.29l-5.48,5.2c-.41.32-1.71,1.73-1.71.3Zm0,34c0-1.45,1.28,0,1.71.3l5.5,5.2a1.91,1.91,0,0,1,.5,1.29,1.73,1.73,0,0,1-.52,1.27l-5.43,5.15c-.41.37-1.74,1.94-1.74.77S128.64,199.06,128.64,199.06Z"/><ellipse class="cls-2" cx="59.92" cy="68.18" rx="57.42" ry="56.88"/><ellipse class="cls-2" cx="196.08" cy="66.96" rx="57.42" ry="56.88"/><ellipse class="cls-2" cx="124.39" cy="189.04" rx="57.42" ry="56.88"/></svg>